<svg width="366" height="52" viewBox="0 0 366 52" fill="none" xmlns="http://www.w3.org/2000/svg">
<g clip-path="url(#clip0_1111_1519)">
<path d="M127.652 4.57143V0H89.5742V4.57143H127.652Z" fill="white" style="fill:white;fill:white;fill-opacity:1;"/>
<path d="M65.6387 0H64.4888H56.6371H51.9306H51.5423L28.3223 46.88L7.36427 4.57143H15.2083L29.9596 34.3467L32.511 29.2039L18.0489 0H17.6605H12.9465H5.10243H3.19094H0L25.7482 52H30.8889L54.3753 4.57143H62.2194L38.7328 52H43.8353L69.5835 0H65.6387Z" fill="white" style="fill:white;fill:white;fill-opacity:1;"/>
<path d="M127.652 51.9924V47.4209H89.5742V51.9924H127.652Z" fill="white" style="fill:white;fill:white;fill-opacity:1;"/>
<path d="M312.436 52L336.213 3.98476L359.988 52H365.091L339.343 0H333.09L307.334 52H312.436Z" fill="white" style="fill:white;fill:white;fill-opacity:1;"/>
<path d="M120.036 27.8097V23.2383H97.1895V27.8097H120.036Z" fill="white" style="fill:white;fill:white;fill-opacity:1;"/>
<path d="M256.964 4.57143V0H228.026V4.57143H256.964Z" fill="white" style="fill:white;fill:white;fill-opacity:1;"/>
<path d="M197.197 52L181.021 33.5238C185.399 33.4111 189.561 31.5989 192.627 28.4704C195.693 25.342 197.422 21.143 197.448 16.7619C197.417 12.3588 195.668 8.14199 192.574 5.01068C189.48 1.87939 185.285 0.0813583 180.884 0H157.847V4.57143H180.884C184.073 4.65225 187.106 5.96841 189.343 8.24252C191.581 10.5166 192.848 13.571 192.879 16.7619C192.857 20.0288 191.539 23.1532 189.216 25.449C186.893 27.7448 183.754 29.024 180.488 29.0058H179.917V28.9523H157.832V52H162.401V33.5238H174.693L190.853 52H197.197Z" fill="white" style="fill:white;fill:white;fill-opacity:1;"/>
<path d="M271.732 0L232.405 47.421L228.026 52H234.354H278.045V47.421H238.733L278.06 0H271.732Z" fill="white" style="fill:white;fill:white;fill-opacity:1;"/>
</g>
<defs>
<clipPath id="clip0_1111_1519">
<rect width="366" height="52" fill="white" style="fill:white;fill:white;fill-opacity:1;"/>
</clipPath>
</defs>
</svg>
