<svg width="156" height="117" viewBox="0 0 156 117" fill="none" xmlns="http://www.w3.org/2000/svg">
<path d="M146.77 0H144.2H11.41H7.14H0L57.57 116.22H98.02L155.59 0H146.77Z" fill="#323143"/>
<path d="M90.76 31.17L72.07 83.84C71.9 84.31 71.46 84.62 70.97 84.62H67.81C67 84.62 66.44 83.82 66.71 83.06L85.4 30.39C85.57 29.92 86.01 29.61 86.5 29.61H89.66C90.47 29.61 91.03 30.41 90.76 31.17Z" fill="white"/>
<path d="M62.69 67.71V62.92C62.69 62.62 62.53 62.34 62.26 62.18L55.14 58.1C54.57 57.77 54.57 56.96 55.14 56.63L62.26 52.52C62.52 52.37 62.68 52.09 62.68 51.79V47.05C62.68 46.39 61.96 45.98 61.39 46.33L44.52 56.65C43.98 56.98 43.98 57.77 44.52 58.1L61.39 68.44C61.95 68.79 62.68 68.38 62.68 67.72L62.69 67.71Z" fill="white"/>
<path d="M92.91 47.06V51.8C92.91 52.1 93.07 52.38 93.33 52.53L100.45 56.64C101.02 56.97 101.02 57.78 100.45 58.11L93.33 62.19C93.07 62.34 92.9 62.62 92.9 62.93V67.72C92.9 68.38 93.63 68.79 94.19 68.44L111.06 58.1C111.6 57.77 111.6 56.98 111.06 56.65L94.19 46.33C93.63 45.98 92.9 46.39 92.9 47.05L92.91 47.06Z" fill="white"/>
</svg>
