<svg width="156" height="117" viewBox="0 0 156 117" fill="none" xmlns="http://www.w3.org/2000/svg">
<path d="M146.77 0H144.2H11.41H7.14H0L57.57 116.22H98.02L155.59 0H146.77Z" fill="#323143"/>
<path d="M109.08 106.56L107.4 102.47C106.73 100.83 106.76 98.99 107.5 97.39L110.61 90.59C110.88 89.99 111.25 89.44 111.69 88.95L117.75 82.27C118.86 81.05 119.45 79.44 119.41 77.79V77.32C119.35 75.86 118.81 74.46 117.86 73.35C116.91 72.24 115.61 71.49 114.17 71.22C112.83 70.97 111.6 70.3 110.66 69.3L107.55 65.97C107.16 65.55 106.72 65.19 106.23 64.89C105.74 64.59 105.22 64.36 104.67 64.2C100.49 62.97 97.11 59.88 95.52 55.82L95.04 54.59C93.17 49.8 93.6 44.42 96.21 39.99L99.12 35.06C101.6 30.85 105.81 27.93 110.62 27.08L117.75 25.82M26.44 72.16L35.93 67.33C38.96 65.79 40.89 62.69 40.94 59.29L40.96 57.95C41.03 53.33 44.52 49.48 49.11 48.97L52.27 48.62C55.84 48.22 58.85 45.78 59.96 42.36L63.1 32.77C64.33 29 67.85 26.46 71.81 26.46C76.87 26.46 80.98 22.36 80.98 17.29V1.22" stroke="#918EAD" stroke-width="0.75" stroke-linecap="round" stroke-linejoin="round"/>
<path d="M28.57 78.59C25.98 72.11 24.55 65.04 24.55 57.64C24.55 47.46 27.25 37.91 31.97 29.66M32.04 85.74C41.78 102.66 60.05 114.06 80.97 114.06C103.98 114.06 123.78 100.28 132.55 80.52M135.76 44.13C136.83 48.46 137.39 52.98 137.39 57.64C137.39 62.98 136.65 68.15 135.26 73.05M120.68 17.56C117.14 14.06 113.16 11.03 108.83 8.57M45.43 13.83C55.12 5.95 67.49 1.22 80.97 1.22C88.28 1.22 95.25 2.61 101.66 5.14" stroke="#918EAD" stroke-width="0.75" stroke-linecap="round" stroke-linejoin="round"/>
<path d="M66.77 66.11C67.26 65.74 67.82 65.47 68.42 65.31L70.12 64.87C72.98 64.14 75.77 66.25 75.86 69.19C75.88 69.95 76.09 70.69 76.47 71.35C76.85 72.01 77.39 72.56 78.03 72.96L82.94 76C84.29 76.84 85.12 78.32 85.12 79.91V87.84C85.12 88.94 85.51 90 86.23 90.83L88.31 93.25C90.25 95.52 89.55 99.01 86.88 100.35L81.99 102.81C81.35 103.13 80.64 103.3 79.92 103.3H74.63C71.7 103.3 69 101.73 67.55 99.18L64.16 93.22C63.92 92.8 63.72 92.35 63.56 91.9" stroke="#918EAD" stroke-width="0.75" stroke-linecap="round" stroke-linejoin="round"/>
<path d="M37.16 29.66L37.79 30.87" stroke="#84F7C0" stroke-width="0.75" stroke-linecap="round" stroke-linejoin="round"/>
<path d="M41.2 37.44L53.54 61.25" stroke="#84F7C0" stroke-width="0.75" stroke-linecap="round" stroke-linejoin="round"/>
<path d="M55.24 64.53L55.87 65.74M124.77 44.74L123.69 45.57" stroke="#84F7C0" stroke-width="0.75" stroke-linecap="round" stroke-linejoin="round"/>
<path d="M117.49 50.35L77.95 80.81" stroke="#84F7C0" stroke-width="0.75" stroke-linecap="round" stroke-linejoin="round"/>
<path d="M74.85 83.2L73.77 84.03" stroke="#84F7C0" stroke-width="0.75" stroke-linecap="round" stroke-linejoin="round"/>
<path d="M50.28 22.14L51.62 22.36" stroke="#84F7C0" stroke-width="0.75" stroke-linecap="round" stroke-linejoin="round"/>
<path d="M59.33 23.58L108.46 31.38" stroke="#84F7C0" stroke-width="0.75" stroke-linecap="round" stroke-linejoin="round"/>
<path d="M112.31 31.99L113.66 32.2" stroke="#84F7C0" stroke-width="0.75" stroke-linecap="round" stroke-linejoin="round"/>
<path d="M37.88 29.22C42.5744 29.22 46.38 25.4144 46.38 20.72C46.38 16.0256 42.5744 12.22 37.88 12.22C33.1856 12.22 29.38 16.0256 29.38 20.72C29.38 25.4144 33.1856 29.22 37.88 29.22Z" fill="white"/>
<path d="M127.88 43.22C132.574 43.22 136.38 39.4144 136.38 34.72C136.38 30.0256 132.574 26.22 127.88 26.22C123.186 26.22 119.38 30.0256 119.38 34.72C119.38 39.4144 123.186 43.22 127.88 43.22Z" fill="white"/>
<path d="M61.88 91.22C66.5744 91.22 70.38 87.4144 70.38 82.72C70.38 78.0256 66.5744 74.22 61.88 74.22C57.1856 74.22 53.38 78.0256 53.38 82.72C53.38 87.4144 57.1856 91.22 61.88 91.22Z" fill="white"/>
</svg>
