<svg width="156" height="117" viewBox="0 0 156 117" fill="none" xmlns="http://www.w3.org/2000/svg">
<path d="M146.77 0H144.2H11.41H7.14H0L57.57 116.22H98.02L155.59 0H146.77Z" fill="#323143"/>
<path d="M91.38 68H71.38C68.29 68 65.78 70.5 65.78 73.58V93.51C65.78 96.59 68.29 99.09 71.38 99.09H82.37V104.22L89.02 99.09H91.39C94.48 99.09 96.99 96.59 96.99 93.51V73.58C96.99 70.5 94.48 68 91.39 68H91.38Z" stroke="#918EAD" stroke-width="0.75" stroke-linecap="round" stroke-linejoin="round"/>
<path d="M81.39 90.32C86.2 87.77 88.69 85.6 88.69 82.24C88.69 77.6 83.01 76.44 81.39 79.92C79.53 76.33 74.09 77.6 74.09 82.24C74.09 85.6 76.58 87.77 81.39 90.32Z" stroke="#918EAD" stroke-width="0.75" stroke-linecap="round" stroke-linejoin="round"/>
<path d="M76.13 73.74V37.79C76.13 33.45 72.6 29.93 68.24 29.93H40.06C35.7 29.93 32.17 33.45 32.17 37.79V65.88C32.17 70.22 35.7 73.74 40.06 73.74H55.54V80.97L64.9 73.74H76.12H76.13Z" fill="#323143" stroke="#918EAD" stroke-width="0.75" stroke-linecap="round" stroke-linejoin="round"/>
<path d="M76.12 55.89C77.77 57.08 79.79 57.78 81.98 57.78H100.71V66.86L112.59 57.78H117.71C123.23 57.78 127.71 53.32 127.71 47.81V12.19C127.71 6.68 123.23 2.22 117.71 2.22H81.98C76.46 2.22 71.98 6.68 71.98 12.19V55.89H76.12Z" fill="#323143" stroke="#918EAD" stroke-width="0.75" stroke-linecap="round" stroke-linejoin="round"/>
<path d="M92.14 43.17L93.17 44C94.8 45.32 96.84 46.04 98.95 46.04H113.58C114.97 46.04 116.08 44.88 116.02 43.48C115.96 42.17 116.02 30.21 116.02 28.87C116.02 27.53 114.93 26.43 113.58 26.43L103.66 26.4L104.87 23.52C106.13 20.53 105.93 17.12 104.32 14.31C103.45 12.96 101.33 13.46 101.29 15.12C101.29 17.7 100.35 20.19 98.64 22.13L92.31 29.29H90V43.18H92.14V43.17Z" fill="#323143" stroke="#918EAD" stroke-width="0.75" stroke-linecap="round" stroke-linejoin="round"/>
<path d="M91.15 45.37H84.47C84.03 45.37 83.67 45.01 83.67 44.57V27.54C83.67 27.1 84.03 26.74 84.47 26.74H91.15C91.59 26.74 91.95 27.1 91.95 27.54V44.57C91.95 45.01 91.59 45.37 91.15 45.37Z" fill="#323143" stroke="#918EAD" stroke-width="0.75" stroke-linecap="round" stroke-linejoin="round"/>
<path d="M64.99 43.91C63.26 43.12 61.43 42.55 59.56 42.23C59.53 42.23 59.49 42.24 59.47 42.27C59.24 42.69 58.98 43.23 58.79 43.66C56.74 43.35 54.7 43.35 52.69 43.66C52.51 43.22 52.24 42.69 52 42.27C51.98 42.24 51.95 42.22 51.91 42.23C50 42.56 48.18 43.13 46.48 43.91C46.47 43.91 46.45 43.93 46.44 43.94C42.98 49.11 42.03 54.15 42.5 59.13C42.5 59.15 42.52 59.18 42.53 59.19C44.81 60.87 47.02 61.88 49.19 62.56C49.22 62.57 49.26 62.56 49.28 62.53C49.79 61.83 50.25 61.09 50.64 60.31C50.66 60.26 50.64 60.21 50.59 60.19C49.86 59.91 49.17 59.58 48.51 59.2C48.46 59.17 48.45 59.09 48.51 59.06C48.65 58.96 48.79 58.85 48.92 58.74C48.94 58.72 48.98 58.72 49.01 58.73C53.38 60.72 58.11 60.72 62.42 58.73C62.45 58.72 62.48 58.73 62.51 58.74C62.65 58.85 62.78 58.96 62.92 59.07C62.97 59.11 62.97 59.18 62.92 59.21C62.26 59.6 61.56 59.93 60.84 60.2C60.8 60.22 60.77 60.27 60.79 60.31C61.19 61.09 61.65 61.83 62.15 62.53C62.17 62.56 62.21 62.57 62.24 62.56C64.42 61.89 66.63 60.87 68.91 59.19C68.93 59.18 68.94 59.15 68.94 59.13C69.5 53.37 68.01 48.37 64.99 43.94C64.99 43.93 64.97 43.91 64.96 43.91H64.99ZM51.32 56.1C50.01 56.1 48.92 54.89 48.92 53.41C48.92 51.93 49.98 50.72 51.32 50.72C52.66 50.72 53.74 51.94 53.72 53.41C53.72 54.89 52.66 56.1 51.32 56.1ZM60.19 56.1C58.88 56.1 57.79 54.89 57.79 53.41C57.79 51.93 58.85 50.72 60.19 50.72C61.53 50.72 62.61 51.94 62.59 53.41C62.59 54.89 61.54 56.1 60.19 56.1Z" fill="white"/>
</svg>
